<svg width="1400" height="650" viewBox="0 0 1400 650" fill="none" xmlns="http://www.w3.org/2000/svg" role="img" aria-labelledby="title desc">
  <title id="title">Humungousaur cognitive nervous system</title>
  <desc id="desc">A brain-and-nervous-system style map of the real Humungousaur cognition package capabilities.</desc>
  <defs>
    <linearGradient id="bg" x1="0" y1="0" x2="1400" y2="650" gradientUnits="userSpaceOnUse">
      <stop stop-color="#FFF7F3"/>
      <stop offset="0.42" stop-color="#F8FAFC"/>
      <stop offset="1" stop-color="#EDFDF8"/>
    </linearGradient>
    <linearGradient id="nerve" x1="103" y1="120" x2="1295" y2="570" gradientUnits="userSpaceOnUse">
      <stop stop-color="#D63D36"/>
      <stop offset="0.36" stop-color="#246BFE"/>
      <stop offset="0.7" stop-color="#10A37F"/>
      <stop offset="1" stop-color="#F59E0B"/>
    </linearGradient>
    <radialGradient id="brainGlow" cx="0" cy="0" r="1" gradientUnits="userSpaceOnUse" gradientTransform="translate(700 330) rotate(90) scale(230 310)">
      <stop stop-color="#FFFFFF"/>
      <stop offset="0.55" stop-color="#F8FAFC"/>
      <stop offset="1" stop-color="#E0F2FE"/>
    </radialGradient>
    <filter id="cardShadow" x="-20%" y="-25%" width="140%" height="150%" color-interpolation-filters="sRGB">
      <feDropShadow dx="0" dy="18" stdDeviation="20" flood-color="#0F172A" flood-opacity="0.12"/>
    </filter>
    <filter id="brainShadow" x="-20%" y="-20%" width="140%" height="140%" color-interpolation-filters="sRGB">
      <feDropShadow dx="0" dy="26" stdDeviation="28" flood-color="#0F172A" flood-opacity="0.16"/>
    </filter>
    <style>
      .card { fill: #FFFFFF; stroke: rgba(226,232,240,0.88); stroke-width: 1; }
      .label { fill: #111827; font-family: Inter, ui-sans-serif, -apple-system, BlinkMacSystemFont, "Segoe UI", sans-serif; font-size: 24px; font-weight: 820; }
      .small { fill: #536783; font-family: Inter, ui-sans-serif, -apple-system, BlinkMacSystemFont, "Segoe UI", sans-serif; font-size: 16px; font-weight: 560; }
      .chip { fill: #F8FAFC; stroke: #E2E8F0; stroke-width: 1; }
      .chipText { fill: #334155; font-family: Inter, ui-sans-serif, -apple-system, BlinkMacSystemFont, "Segoe UI", sans-serif; font-size: 14px; font-weight: 700; }
      .nerve { stroke: url(#nerve); stroke-width: 5; stroke-linecap: round; stroke-linejoin: round; opacity: 0.78; }
      .nerveThin { stroke: url(#nerve); stroke-width: 2.5; stroke-linecap: round; stroke-dasharray: 1 12; opacity: 0.46; }
      .brainLine { stroke: #64748B; stroke-width: 3; stroke-linecap: round; opacity: 0.58; }
    </style>
  </defs>

  <rect width="1400" height="650" rx="40" fill="url(#bg)"/>
  <circle cx="196" cy="112" r="150" fill="#D63D36" opacity="0.08"/>
  <circle cx="1170" cy="132" r="190" fill="#10A37F" opacity="0.08"/>
  <circle cx="702" cy="590" r="180" fill="#246BFE" opacity="0.06"/>

  <path class="nerveThin" d="M700 326C548 214 397 172 219 204"/>
  <path class="nerveThin" d="M700 326C548 434 394 480 222 500"/>
  <path class="nerveThin" d="M700 326C854 216 1006 168 1186 210"/>
  <path class="nerveThin" d="M700 326C856 438 1010 493 1190 494"/>
  <path class="nerveThin" d="M700 326C695 244 696 181 700 118"/>
  <path class="nerveThin" d="M700 326C704 426 702 511 700 585"/>

  <path class="nerve" d="M700 225C700 194 700 168 700 150"/>
  <path class="nerve" d="M565 286C498 263 438 232 372 220"/>
  <path class="nerve" d="M565 382C500 410 457 456 406 480"/>
  <path class="nerve" d="M835 286C904 261 969 226 1036 222"/>
  <path class="nerve" d="M835 382C905 413 954 462 1015 480"/>
  <path class="nerve" d="M700 455C700 490 700 516 700 540"/>

  <g filter="url(#brainShadow)">
    <path d="M694 204C652 174 592 189 574 236C532 246 515 297 540 333C514 370 538 423 585 424C611 470 676 464 696 417C724 394 725 348 699 323C729 287 727 231 694 204Z" fill="url(#brainGlow)" stroke="#CBD5E1" stroke-width="2"/>
    <path d="M706 204C748 174 808 189 826 236C868 246 885 297 860 333C886 370 862 423 815 424C789 470 724 464 704 417C676 394 675 348 701 323C671 287 673 231 706 204Z" fill="url(#brainGlow)" stroke="#CBD5E1" stroke-width="2"/>
    <path d="M668 433C673 472 686 501 700 526C714 501 727 472 732 433C721 448 679 448 668 433Z" fill="#F8FAFC" stroke="#CBD5E1" stroke-width="2"/>
    <path class="brainLine" d="M638 228C612 244 603 273 622 294"/>
    <path class="brainLine" d="M666 218C653 252 664 276 693 293"/>
    <path class="brainLine" d="M604 326C629 316 651 327 666 352"/>
    <path class="brainLine" d="M638 397C660 380 684 386 696 414"/>
    <path class="brainLine" d="M762 228C788 244 797 273 778 294"/>
    <path class="brainLine" d="M734 218C747 252 736 276 707 293"/>
    <path class="brainLine" d="M796 326C771 316 749 327 734 352"/>
    <path class="brainLine" d="M762 397C740 380 716 386 704 414"/>
    <circle cx="700" cy="326" r="42" fill="#111827"/>
    <text x="700" y="319" text-anchor="middle" fill="#FFFFFF" font-family="Inter, ui-sans-serif, -apple-system, BlinkMacSystemFont, 'Segoe UI', sans-serif" font-size="12" font-weight="850">COGNITION</text>
    <text x="700" y="340" text-anchor="middle" fill="#CBD5E1" font-family="Inter, ui-sans-serif, -apple-system, BlinkMacSystemFont, 'Segoe UI', sans-serif" font-size="11" font-weight="700">CORE</text>
  </g>

  <g filter="url(#cardShadow)">
    <rect class="card" x="500" y="52" width="400" height="98" rx="24"/>
    <text class="label" x="700" y="91" text-anchor="middle">Executive Cortex</text>
    <text class="small" x="700" y="119" text-anchor="middle">goals, commitments, priority, briefing</text>
  </g>

  <g filter="url(#cardShadow)">
    <rect class="card" x="72" y="154" width="300" height="132" rx="24"/>
    <text class="label" x="112" y="199">Attention Nerves</text>
    <text class="small" x="112" y="226">decide what deserves response</text>
    <rect class="chip" x="112" y="246" width="62" height="28" rx="14"/><text class="chipText" x="143" y="265" text-anchor="middle">focus</text>
    <rect class="chip" x="184" y="246" width="74" height="28" rx="14"/><text class="chipText" x="221" y="265" text-anchor="middle">triggers</text>
    <rect class="chip" x="268" y="246" width="82" height="28" rx="14"/><text class="chipText" x="309" y="265" text-anchor="middle">queue</text>
  </g>

  <g filter="url(#cardShadow)">
    <rect class="card" x="80" y="405" width="326" height="144" rx="24"/>
    <text class="label" x="120" y="450">Memory Plexus</text>
    <text class="small" x="120" y="477">turn experience into reusable context</text>
    <rect class="chip" x="120" y="498" width="76" height="28" rx="14"/><text class="chipText" x="158" y="517" text-anchor="middle">recorder</text>
    <rect class="chip" x="206" y="498" width="112" height="28" rx="14"/><text class="chipText" x="262" y="517" text-anchor="middle">consolidation</text>
    <rect class="chip" x="328" y="498" width="58" height="28" rx="14"/><text class="chipText" x="357" y="517" text-anchor="middle">curate</text>
  </g>

  <g filter="url(#cardShadow)">
    <rect class="card" x="1036" y="150" width="304" height="150" rx="24"/>
    <text class="label" x="1076" y="195">Action Pathways</text>
    <text class="small" x="1076" y="222">route work into tools and workers</text>
    <rect class="chip" x="1076" y="243" width="54" height="28" rx="14"/><text class="chipText" x="1103" y="262" text-anchor="middle">loop</text>
    <rect class="chip" x="1140" y="243" width="96" height="28" rx="14"/><text class="chipText" x="1188" y="262" text-anchor="middle">delegation</text>
    <rect class="chip" x="1246" y="243" width="72" height="28" rx="14"/><text class="chipText" x="1282" y="262" text-anchor="middle">skills</text>
  </g>

  <g filter="url(#cardShadow)">
    <rect class="card" x="1015" y="406" width="320" height="146" rx="24"/>
    <text class="label" x="1055" y="451">Self-Regulation</text>
    <text class="small" x="1055" y="478">review, recover, and adapt safely</text>
    <rect class="chip" x="1055" y="499" width="86" height="28" rx="14"/><text class="chipText" x="1098" y="518" text-anchor="middle">reflection</text>
    <rect class="chip" x="1151" y="499" width="94" height="28" rx="14"/><text class="chipText" x="1198" y="518" text-anchor="middle">recovery</text>
    <rect class="chip" x="1255" y="499" width="58" height="28" rx="14"/><text class="chipText" x="1284" y="518" text-anchor="middle">review</text>
  </g>

  <g filter="url(#cardShadow)">
    <rect class="card" x="490" y="540" width="420" height="82" rx="24"/>
    <text class="label" x="700" y="575" text-anchor="middle">Skill Metabolism</text>
    <text class="small" x="700" y="604" text-anchor="middle">skill_forge, skill_evolution, learning, specialists</text>
  </g>

  <circle cx="700" cy="150" r="8" fill="#246BFE"/>
  <circle cx="372" cy="220" r="8" fill="#D63D36"/>
  <circle cx="406" cy="480" r="8" fill="#7C3AED"/>
  <circle cx="1036" cy="222" r="8" fill="#10A37F"/>
  <circle cx="1015" cy="480" r="8" fill="#F59E0B"/>
  <circle cx="700" cy="540" r="8" fill="#246BFE"/>
</svg>
